<svg xmlns="http://www.w3.org/2000/svg" xmlns:xlink="http://www.w3.org/1999/xlink" stroke-miterlimit="10" stroke-linecap="square" stroke="none" fill="none" viewBox="30.02024746906637 20.304000000000002 281.84476940382456 138.24" version="1.1" style="max-height: 500px" width="281.84476940382456" height="138.24"><clipPath id="p.0"><path clip-rule="nonzero" d="m0 0l960.0 0l0 540.0l-960.0 0l0 -540.0z"/></clipPath><g clip-path="url(#p.0)"><path fill-rule="evenodd" d="m0 0l960.0 0l0 540.0l-960.0 0z" fill="#ffffff"/><path fill-rule="evenodd" d="m26.396326 20.860893l58.173233 0l0 102.173225l-58.173233 0z" fill-opacity="0.0" fill="#000000"/><path fill-rule="evenodd" d="m43.427822 37.183727l62.45669 0l0 48.47244l-62.45669 0z" fill-opacity="0.0" fill="#000000"/><path fill-rule="nonzero" d="m57.130947 74.2706l-1.8125 0l0 -21.812496l1.8125 0l0 21.812496zm11.031246 -8.109375q0 0.6875 0.078125 1.03125q0.078125 0.34375 0.265625 0.5625q0.203125 0.21875 0.5625 0.34375q0.359375 0.109375 0.90625 0.1875q0.5625 0.0625 1.46875 0.078125l0 0.859375l-8.671871 0l0 -0.859375q1.3124962 -0.0625 1.8593712 -0.15625q0.5625 -0.09375 0.84375 -0.296875q0.296875 -0.203125 0.4375 -0.5625q0.140625 -0.359375 0.140625 -1.1875l0 -9.499996q0 -0.46875 -0.171875 -0.6875q-0.15625 -0.21875 -0.484375 -0.21875q-0.375 0 -1.0625 0.390625q-0.6874962 0.390625 -1.7031212 1.0625l-0.515625 -0.90625l5.484371 -3.265625l0.640625 0q-0.078125 1.125 -0.078125 3.125l0 9.999996z" fill="#000000"/><path fill-rule="nonzero" d="m80.56063 62.645603l-5.515625 11.328121l-1.234375 -0.59375l5.234375 -10.734371l-5.234375 -10.71875l1.234375 -0.609375l5.515625 11.328125z" fill="#000000"/><path fill-rule="evenodd" d="m43.427822 85.656166l58.17323 0l0 48.47245l-58.17323 0z" fill-opacity="0.0" fill="#000000"/><path fill-rule="nonzero" d="m57.130947 122.74304l-1.8125 0l0 -21.8125l1.8125 0l0 21.8125zm9.406246 -4.859375q-2.53125 0 -3.7656212 -1.984375q-1.234375 -2.0 -1.234375 -6.0625q0 -2.15625 0.375 -3.71875q0.390625 -1.578125 1.0625 -2.59375q0.6875 -1.03125 1.6406212 -1.515625q0.96875 -0.5 2.109375 -0.5q2.5625 0 3.8125 1.984375q1.265625 1.984375 1.265625 5.984375q0 4.15625 -1.34375 6.28125q-1.34375 2.125 -3.921875 2.125zm-2.7187462 -8.390625q0 3.8125 0.7031212 5.609375q0.71875 1.78125 2.203125 1.78125q1.421875 0 2.109375 -1.671875q0.6875 -1.6875 0.6875 -5.21875q0 -2.6875 -0.359375 -4.359375q-0.34375 -1.671875 -0.984375 -2.390625q-0.625 -0.734375 -1.515625 -0.734375q-0.796875 0 -1.34375 0.484375q-0.546875 0.46875 -0.890625 1.375q-0.328125 0.90625 -0.4687462 2.203125q-0.140625 1.296875 -0.140625 2.921875z" fill="#000000"/><path fill-rule="nonzero" d="m80.56063 111.11804l-5.515625 11.328125l-1.234375 -0.59375l5.234375 -10.734375l-5.234375 -10.71875l1.234375 -0.609375l5.515625 11.328125z" fill="#000000"/><path fill-rule="evenodd" d="m88.845146 63.435696l159.65353 -0.724411" fill-opacity="0.0" fill="#000000"/><path fill-rule="evenodd" d="m88.845146 63.435696l159.65353 -0.724411" stroke-linecap="butt" stroke-linejoin="round" stroke-width="1.0" stroke="#595959"/><path fill-rule="evenodd" d="m122.90026 44.034122l34.77166 0l0 34.77165l-34.77166 0z" fill="#ffffff"/><path fill-rule="evenodd" d="m122.90026 44.034122l34.77166 0l0 34.77165l-34.77166 0z" stroke-linecap="butt" stroke-linejoin="round" stroke-width="1.0" stroke="#595959"/><path fill-rule="nonzero" d="m134.14243 68.33994l5.171875 -6.953121l-4.5625 -6.40625l2.109375 0l2.421875 3.4375q0.75 1.0625 1.078125 1.625q0.4375 -0.71875 1.046875 -1.515625l2.6875 -3.546875l1.921875 0l-4.6875 6.296875l5.0625 7.062496l-2.1875 0l-3.359375 -4.765621q-0.28125 -0.40625 -0.59375 -0.890625q-0.4375 0.734375 -0.625 1.0l-3.359375 4.656246l-2.125 0z" fill="#000000"/><path fill-rule="evenodd" d="m140.28609 78.80577l0 38.551186" fill-opacity="0.0" fill="#000000"/><path fill-rule="evenodd" d="m140.28609 78.80577l0 34.761192" stroke-linecap="butt" stroke-linejoin="round" stroke-width="1.0" stroke="#595959"/><path fill-rule="nonzero" d="m140.28609 116.85696c-0.9085083 0 -1.6450043 -0.736496 -1.6450043 -1.6450043c0 -0.9085083 0.736496 -1.6449966 1.6450043 -1.6449966c0.9085083 0 1.6450043 0.73648834 1.6450043 1.6449966c0 0.9085083 -0.736496 1.6450043 -1.6450043 1.6450043z" stroke-linecap="butt" stroke-width="1.0" stroke="#595959" fill="#595959"/><path fill-rule="evenodd" d="m88.845146 113.8294l159.65353 -0.724411" fill-opacity="0.0" fill="#000000"/><path fill-rule="evenodd" d="m88.845146 113.8294l159.65353 -0.724411" stroke-linecap="butt" stroke-linejoin="round" stroke-width="1.0" stroke="#595959"/><path fill-rule="evenodd" d="m248.49869 44.034122l34.771667 0l0 34.77165l-34.771667 0z" fill="#ffffff"/><path fill-rule="evenodd" d="m248.49869 44.034122l34.771667 0l0 34.77165l-34.771667 0z" stroke-linecap="butt" stroke-linejoin="round" stroke-width="1.0" stroke="#595959"/><path fill-rule="nonzero" d="m259.2925 61.4412q0 -1.890625 1.015625 -2.96875q1.03125 -1.078125 2.640625 -1.078125q1.046875 0 1.890625 0.515625q0.859375 0.5 1.296875 1.40625q0.453125 0.890625 0.453125 2.046875q0 1.15625 -0.46875 2.078125q-0.46875 0.90625 -1.328125 1.375q-0.859375 0.46875 -1.859375 0.46875q-1.078125 0 -1.921875 -0.515625q-0.84375 -0.515625 -1.28125 -1.40625q-0.4375 -0.90625 -0.4375 -1.921875zm1.046875 0.015625q0 1.375 0.734375 2.171875q0.734375 0.796875 1.859375 0.796875q1.140625 0 1.875 -0.796875q0.734375 -0.8125 0.734375 -2.28125q0 -0.921875 -0.3125 -1.609375q-0.3125 -0.703125 -0.921875 -1.078125q-0.609375 -0.390625 -1.359375 -0.390625q-1.078125 0 -1.84375 0.734375q-0.765625 0.734375 -0.765625 2.453125zm7.4293823 3.703125l0 -5.53125l0.84375 0l0 0.796875q0.609375 -0.921875 1.75 -0.921875q0.5 0 0.921875 0.1875q0.421875 0.171875 0.625 0.46875q0.21875 0.296875 0.296875 0.6875q0.046875 0.265625 0.046875 0.921875l0 3.390625l-0.9375 0l0 -3.359375q0 -0.578125 -0.109375 -0.859375q-0.109375 -0.28125 -0.390625 -0.453125q-0.265625 -0.171875 -0.640625 -0.171875q-0.59375 0 -1.03125 0.390625q-0.4375 0.375 -0.4375 1.4375l0 3.015625l-0.9375 0z" fill="#000000"/><path fill-rule="evenodd" d="m248.49869 96.08137l34.771667 0l0 34.771645l-34.771667 0z" fill="#ffffff"/><path fill-rule="evenodd" d="m248.49869 96.08137l34.771667 0l0 34.771645l-34.771667 0z" stroke-linecap="butt" stroke-linejoin="round" stroke-width="1.0" stroke="#595959"/><path fill-rule="nonzero" d="m259.39145 113.48844q0 -1.890625 1.015625 -2.96875q1.03125 -1.078125 2.640625 -1.078125q1.046875 0 1.890625 0.515625q0.859375 0.5 1.296875 1.40625q0.453125 0.890625 0.453125 2.046875q0 1.15625 -0.46875 2.078125q-0.46875 0.90625 -1.328125 1.375q-0.859375 0.46875 -1.859375 0.46875q-1.078125 0 -1.921875 -0.515625q-0.84375 -0.515625 -1.28125 -1.40625q-0.4375 -0.90625 -0.4375 -1.921875zm1.046875 0.015625q0 1.375 0.734375 2.171875q0.734375 0.796875 1.859375 0.796875q1.140625 0 1.875 -0.796875q0.734375 -0.8125 0.734375 -2.28125q0 -0.921875 -0.3125 -1.609375q-0.3125 -0.703125 -0.921875 -1.078125q-0.609375 -0.390625 -1.359375 -0.390625q-1.078125 0 -1.84375 0.734375q-0.765625 0.734375 -0.765625 2.453125zm7.648163 3.703125l0 -4.796875l-0.828125 0l0 -0.734375l0.828125 0l0 -0.578125q0 -0.5625 0.109375 -0.828125q0.125 -0.375 0.46875 -0.59375q0.34375 -0.234375 0.953125 -0.234375q0.390625 0 0.875 0.09375l-0.140625 0.828125q-0.296875 -0.0625 -0.546875 -0.0625q-0.421875 0 -0.609375 0.1875q-0.171875 0.1875 -0.171875 0.6875l0 0.5l1.078125 0l0 0.734375l-1.078125 0l0 4.796875l-0.9375 0zm2.7679443 0l0 -4.796875l-0.828125 0l0 -0.734375l0.828125 0l0 -0.578125q0 -0.5625 0.109375 -0.828125q0.125 -0.375 0.46875 -0.59375q0.34375 -0.234375 0.953125 -0.234375q0.390625 0 0.875 0.09375l-0.140625 0.828125q-0.296875 -0.0625 -0.546875 -0.0625q-0.421875 0 -0.609375 0.1875q-0.171875 0.1875 -0.171875 0.6875l0 0.5l1.078125 0l0 0.734375l-1.078125 0l0 4.796875l-0.9375 0z" fill="#000000"/></g></svg>